<svg focusable="false" viewBox="0 0 18 18" id="pinterest" xmlns="http://www.w3.org/2000/svg"><path fill-rule="evenodd" d="M8.999 0a9 9 0 0 0-3.613 17.243c-.025-.628-.004-1.383.157-2.067l1.158-4.904s-.288-.574-.288-1.424c0-1.333.774-2.33 1.736-2.33.819 0 1.214.615 1.214 1.352 0 .823-.524 2.054-.794 3.194-.226.954.478 1.733 1.42 1.733 1.705 0 2.854-2.19 2.854-4.785 0-1.973-1.329-3.449-3.745-3.449-2.73 0-4.431 2.036-4.431 4.31 0 .784.231 1.337.593 1.765.167.197.19.276.13.502-.044.166-.143.564-.184.722-.06.228-.244.31-.45.225-1.258-.513-1.844-1.89-1.844-3.438 0-2.556 2.157-5.622 6.433-5.622 3.436 0 5.698 2.486 5.698 5.156 0 3.53-1.963 6.168-4.857 6.168-.971 0-1.885-.526-2.198-1.122 0 0-.523 2.073-.634 2.474-.19.694-.564 1.387-.905 1.928A9 9 0 1 0 8.999 0z"></path></svg>