<svg focusable="false" viewBox="0 0 20 20" id="instagram" xmlns="http://www.w3.org/2000/svg"><path fill-rule="evenodd" d="M10 1.802c2.67 0 2.987.011 4.042.059 2.71.123 3.975 1.409 4.099 4.099.048 1.054.057 1.371.057 4.041 0 2.671-.01 2.986-.057 4.041-.124 2.687-1.387 3.975-4.099 4.099-1.055.048-1.37.058-4.042.058-2.67 0-2.987-.01-4.041-.058-2.716-.124-3.976-1.416-4.099-4.1-.048-1.054-.058-1.37-.058-4.041 0-2.67.011-2.986.058-4.041.124-2.689 1.387-3.976 4.099-4.099C7.014 1.813 7.33 1.802 10 1.802zM10 0C7.284 0 6.944.012 5.878.06 2.246.227.228 2.242.061 5.877.012 6.944 0 7.284 0 10s.012 3.057.06 4.123c.167 3.632 2.182 5.65 5.817 5.817 1.067.048 1.407.06 4.123.06s3.057-.012 4.123-.06c3.629-.167 5.652-2.182 5.816-5.817.049-1.066.061-1.407.061-4.123s-.012-3.056-.06-4.122c-.163-3.629-2.181-5.65-5.816-5.817C13.057.012 12.716 0 10 0zm0 4.865a5.135 5.135 0 1 0 0 10.27 5.135 5.135 0 0 0 0-10.27zm0 8.468a3.332 3.332 0 1 1 0-6.666 3.333 3.333 0 1 1 0 6.666zm5.338-9.87a1.2 1.2 0 1 0-.001 2.4 1.2 1.2 0 0 0 .001-2.4z"></path></svg>