<svg focusable="false" viewBox="0 0 16 10" id="mail-light" xmlns="http://www.w3.org/2000/svg"><path fill="#FFF" fill-rule="evenodd" d="M16.001.288a.29.29 0 0 0-.004-.031l-.005-.028a.276.276 0 0 0-.008-.027c-.003-.01-.008-.019-.012-.029L15.96.15l-.018-.027a.067.067 0 0 0-.007-.011l-.009-.01-.023-.022a.163.163 0 0 0-.02-.017.138.138 0 0 0-.025-.017l-.024-.014-.028-.011a.198.198 0 0 0-.026-.008c-.009-.003-.019-.004-.028-.006a1.519 1.519 0 0 1-.03-.003l-.014-.001H.293L.279.004l-.03.003C.239.009.23.01.221.013L.194.021a.203.203 0 0 0-.026.011L.143.046a.213.213 0 0 0-.025.016L.097.08.075.102l-.01.01a.036.036 0 0 1-.007.01L.041.15.028.173.017.202C.014.21.01.22.009.229.006.238.005.247.003.257.002.267 0 .277 0 .288l-.001.013V9.7c0 .165.132.299.294.299h15.415a.297.297 0 0 0 .294-.299V.301l-.001-.013zM14.883.6L8 6.308 1.117.6h13.766zM.587 9.402V.931l7.227 5.994a.292.292 0 0 0 .373 0L15.412.931v8.471H.587z"></path></svg>