<svg focusable="false" viewBox="0 0 48 35" id="curated" xmlns="http://www.w3.org/2000/svg"><title>binoculars</title><path d="M46.67 20L38.25 4a5.87 5.87 0 0 0-11 3l.06 1.34a6.15 6.15 0 0 0-6.56 0L20.81 7a5.86 5.86 0 0 0-11-3L1.32 20A10 10 0 1 0 20 25.23 4.16 4.16 0 0 1 24 23a4.16 4.16 0 0 1 4 2.23A10 10 0 1 0 46.67 20zM30.29 4.19a3.89 3.89 0 0 1 6.21.82l5.78 11a10 10 0 0 0-12.51 3.38L29.22 7a3.82 3.82 0 0 1 1.07-2.81zm-18.77.87a3.86 3.86 0 0 1 7.26 2l-.54 12.29A10 10 0 0 0 5.73 16l5.79-10.94zM10 33a8 8 0 1 1 0-16 8 8 0 0 1 0 16zm14-12a6.65 6.65 0 0 0-3.87 1.12l.47-10.76a4.06 4.06 0 0 1 6.81 0l.47 10.76A6.65 6.65 0 0 0 24 21zm14 12a8 8 0 1 1 0-16 8 8 0 0 1 0 16z" fill="#A0237F" fill-rule="nonzero"></path></svg>