<svg focusable="false" width="0" height="0" style="position:absolute"><defs><svg focusable="false" viewBox="0 0 24 24" id="afterpay-full-pie" xmlns="http://www.w3.org/2000/svg"><defs><style>.aacls-1{fill:#b2fce4}.aacls-2{fill:#fff}</style></defs><circle class="aacls-1" cx="12" cy="12" r="11.5" id="aa_4_Parts" data-name="4 Parts"></circle><path class="aacls-2" d="M12 1.5A10.5 10.5 0 1 1 1.5 12 10.51 10.51 0 0 1 12 1.5m0-1A11.5 11.5 0 1 0 23.5 12 11.5 11.5 0 0 0 12 .5z" id="aaOuter_Stroke" data-name="Outer Stroke"></path></svg><svg focusable="false" viewBox="0 0 24 24" id="afterpay-half-pie" xmlns="http://www.w3.org/2000/svg"><defs><style>.abcls-1{fill:#b2fce4}.abcls-2{fill:#fff}</style></defs><g id="ab_4_Parts" data-name="4 Parts"><circle cx="12" cy="12" r="11.15"></circle><path class="abcls-1" d="M12 23.5a11.5 11.5 0 0 0 0-23z"></path></g><path class="abcls-2" d="M12 1.5A10.5 10.5 0 1 1 1.5 12 10.51 10.51 0 0 1 12 1.5m0-1A11.5 11.5 0 1 0 23.5 12 11.5 11.5 0 0 0 12 .5z" id="abOuter_Stroke" data-name="Outer Stroke"></path></svg><svg focusable="false" viewBox="0 0 24 24" id="afterpay-quarter-pie" xmlns="http://www.w3.org/2000/svg"><defs><style>.accls-1{fill:#b2fce4}.accls-2{fill:#fff}</style></defs><g id="ac_4_Parts" data-name="4 Parts"><circle cx="12" cy="12" r="11.15"></circle><path class="accls-1" d="M12 .5A11.5 11.5 0 0 1 23.5 12H12"></path></g><path class="accls-2" d="M12 1.5A10.5 10.5 0 1 1 1.5 12 10.51 10.51 0 0 1 12 1.5m0-1A11.5 11.5 0 1 0 23.5 12 11.5 11.5 0 0 0 12 .5z" id="acOuter_Stroke" data-name="Outer Stroke"></path></svg><svg focusable="false" viewBox="0 0 24 24" id="afterpay-three-fourths-pie" xmlns="http://www.w3.org/2000/svg"><defs><style>.adcls-1{fill:#b2fce4}.adcls-2{fill:#fff}</style></defs><g id="ad_4_Parts" data-name="4 Parts"><circle cx="12" cy="12" r="11.15"></circle><path class="adcls-1" d="M.5 12A11.5 11.5 0 1 0 12 .5V12z"></path></g><path class="adcls-2" d="M12 1.5A10.5 10.5 0 1 1 1.5 12 10.51 10.51 0 0 1 12 1.5m0-1A11.5 11.5 0 1 0 23.5 12 11.5 11.5 0 0 0 12 .5z" id="adOuter_Stroke" data-name="Outer Stroke"></path></svg><svg focusable="false" viewBox="0 0 19 10" id="arrow" xmlns="http://www.w3.org/2000/svg"><path fill-rule="evenodd" d="M18.996 9.292l-.717.703-8.783-8.603L.713 9.995l-.718-.703L9.496-.015l9.5 9.307z"></path></svg><svg focusable="false" viewBox="0 0 19 10" id="arrow-down" xmlns="http://www.w3.org/2000/svg"><path fill-rule="evenodd" d="M.003.708L.721.005l8.783 8.603L18.288.005l.718.703-9.502 9.307L.003.708z"></path></svg><svg focusable="false" viewBox="0 0 10 19" id="arrow-left" xmlns="http://www.w3.org/2000/svg"><path fill-rule="evenodd" d="M9.292.003l.703.718-8.603 8.783 8.603 8.783-.703.718-9.307-9.501L9.292.003z"></path></svg><svg focusable="false" viewBox="0 0 19 10" id="arrow-light" xmlns="http://www.w3.org/2000/svg"><path fill="#FFF" fill-rule="evenodd" d="M18.997 9.292l-.718.703-8.783-8.603L.712 9.995l-.718-.703L9.496-.015l9.501 9.307z"></path></svg><svg focusable="false" viewBox="0 0 19 10" id="arrow-light-down" xmlns="http://www.w3.org/2000/svg"><path fill="#FFF" fill-rule="evenodd" d="M.002.708L.721.005l8.783 8.603L18.288.005l.717.703-9.501 9.307L.002.708z"></path></svg><svg focusable="false" viewBox="0 0 10 19" id="arrow-right" xmlns="http://www.w3.org/2000/svg"><path fill-rule="evenodd" d="M.709 18.997l-.704-.718 8.603-8.783L.005.713l.704-.719 9.306 9.502-9.306 9.501z"></path></svg><svg focusable="false" viewBox="0 0 14 7" id="arrow-small" xmlns="http://www.w3.org/2000/svg"><path fill-rule="evenodd" d="M13.993 6.495l-.528.492L6.997.974.529 6.987 0 6.495 6.997-.008l6.996 6.503z"></path></svg><svg focusable="false" viewBox="0 0 16 9" id="arrow-small-down" xmlns="http://www.w3.org/2000/svg"><path fill-rule="evenodd" d="M.945 1.224l.532-.522 6.51 6.387L14.498.702l.533.522-7.044 6.91-7.042-6.91z"></path></svg><svg focusable="false" viewBox="0 0 41.5 41.5" id="back-to-top" xmlns="http://www.w3.org/2000/svg"><path fill="#FFF" fill-rule="evenodd" stroke="#000" d="M.5.5h40v40H.5V.5z"></path><path fill-rule="evenodd" d="M28.036 24.506l1.461-1.403-8.996-8.603-8.995 8.603 1.461 1.403 7.534-7.237 7.535 7.237z"></path></svg><svg focusable="false" viewBox="0 0 31 14" id="beauty-squad" xmlns="http://www.w3.org/2000/svg"><path fill="#F16B6B" fill-rule="evenodd" d="M15.501 2.269C17.107.518 20.031-.754 23.003.49c2.687 1.122 5.579 5.04 8 6.471-4.453 2.372-7.167 6.399-13.336 6.957-8.696.786-12.568-3.779-17.669-7.119C2.894 5.611 5.251 1.447 8.5.326c2.602-.897 5.516.09 7.001 1.943"></path></svg><svg focusable="false" viewBox="0 0 100 100" id="camera" xmlns="http://www.w3.org/2000/svg"><path d="M86.6 50c0 20.2-16.4 36.6-36.6 36.6S13.4 70.2 13.4 50 29.8 13.4 50 13.4 86.6 29.8 86.6 50m8.4 0C95 25.1 74.9 5 50 5S5 25.1 5 50s20.1 45 45 45 45-20.1 45-45"></path><path d="M55.8 22.6c-16.8 2-30.1 15.3-32.1 32.1-.2-1.3-.3-2.6-.3-4 0-15.7 12.7-28.4 28.4-28.4 1.4 0 2.7.1 4 .3M81 50c0-17.1-13.9-31-31-31S19 32.9 19 50s13.9 31 31 31 31-13.9 31-31"></path></svg><svg focusable="false" viewBox="0 0 20 25" id="cart-icon" xmlns="http://www.w3.org/2000/svg"><path fill-rule="evenodd" d="M15.992 5.101C15.545 2.213 13.022 0 10 0S4.455 2.22 4.007 5.101H0V25h20V5.101h-4.008zM10 1.129a4.935 4.935 0 0 1 4.844 3.98H5.157A4.933 4.933 0 0 1 10 1.129zm8.866 22.75H1.127V6.23h17.739v17.649z"></path></svg><svg focusable="false" viewBox="0 0 19 18" id="chat-footer" xmlns="http://www.w3.org/2000/svg"><path fill-rule="evenodd" d="M15.276 0H4.255C2.428 0 .948 1.511.948 3.374v6.751c0 1.865 1.48 3.375 3.307 3.375h1.101s1.103.81 1.103 2.7V18l4.409-4.5h4.408c1.826 0 3.307-1.511 3.307-3.375V3.373C18.583 1.511 17.102 0 15.276 0z"></path></svg><svg focusable="false" viewBox="0 0 15 15" id="chat-pdp" xmlns="http://www.w3.org/2000/svg"><path fill-rule="evenodd" d="M14.615 11.616h-4.496l.074 2.811a.503.503 0 0 1-.262.512.55.55 0 0 1-.257.064.66.66 0 0 1-.458-.194l-3.22-3.194H.385A.386.386 0 0 1 0 11.227V.386c0-.214.172-.387.385-.387h14.23c.213 0 .385.173.385.387v10.843a.386.386 0 0 1-.385.387zM14.231.773H.769V10.84h5.384a.386.386 0 0 1 .27.112l2.981 2.956-.069-2.671v-.01c0-.214.172-.387.384-.387h4.512V.773zM4.077 7.038h6.539v.774H4.077v-.774zm0-2.904h6.539v.774H4.077v-.774z"></path></svg><svg focusable="false" viewBox="0 0 12 10" id="checkmark" xmlns="http://www.w3.org/2000/svg"><path d="M4.18 10L.01 5.28l1.91-1.59L4.23 6.3 10.12 0l1.87 1.64L4.18 10z"></path></svg><svg focusable="false" viewBox="0 0 20 20" id="close" xmlns="http://www.w3.org/2000/svg"><path fill-rule="evenodd" d="M19.354 18.646l-.708.707L10 10.707l-8.647 8.646-.706-.707L9.293 10 .647 1.354l.706-.708L10 9.293 18.646.646l.708.708L10.707 10l8.647 8.646z"></path></svg><svg focusable="false" viewBox="0 0 20 20" id="close-light" xmlns="http://www.w3.org/2000/svg"><path fill="#FFF" fill-rule="evenodd" d="M19.354 18.647l-.707.706L10 10.707l-8.646 8.646-.708-.706L9.293 10 .646 1.353l.708-.706L10 9.293 18.647.647l.707.706L10.707 10l8.647 8.647z"></path></svg><svg focusable="false" viewBox="0 0 48 35" id="curated" xmlns="http://www.w3.org/2000/svg"><title>binoculars</title><path d="M46.67 20L38.25 4a5.87 5.87 0 0 0-11 3l.06 1.34a6.15 6.15 0 0 0-6.56 0L20.81 7a5.86 5.86 0 0 0-11-3L1.32 20A10 10 0 1 0 20 25.23 4.16 4.16 0 0 1 24 23a4.16 4.16 0 0 1 4 2.23A10 10 0 1 0 46.67 20zM30.29 4.19a3.89 3.89 0 0 1 6.21.82l5.78 11a10 10 0 0 0-12.51 3.38L29.22 7a3.82 3.82 0 0 1 1.07-2.81zm-18.77.87a3.86 3.86 0 0 1 7.26 2l-.54 12.29A10 10 0 0 0 5.73 16l5.79-10.94zM10 33a8 8 0 1 1 0-16 8 8 0 0 1 0 16zm14-12a6.65 6.65 0 0 0-3.87 1.12l.47-10.76a4.06 4.06 0 0 1 6.81 0l.47 10.76A6.65 6.65 0 0 0 24 21zm14 12a8 8 0 1 1 0-16 8 8 0 0 1 0 16z" fill="#A0237F" fill-rule="nonzero"></path></svg><svg focusable="false" viewBox="0 0 44 48" id="early-access" xmlns="http://www.w3.org/2000/svg"><title>unlock</title><g transform="translate(1 1)" fill="none" fill-rule="evenodd"><path d="M26 46H8a8 8 0 0 1-8-8V18h34v20a8 8 0 0 1-8 8zM22 18v-8c0-5.523 4.477-10 10-10s10 4.477 10 10v8" stroke="#A0237F" stroke-width="2"></path><path d="M17 37a1.34 1.34 0 0 1-1.31-1l-1.61-5.38A3 3 0 0 1 17 27a3 3 0 0 1 2.92 3.59L18.31 36A1.34 1.34 0 0 1 17 37z" fill="#A0237F" fill-rule="nonzero"></path></g></svg><svg focusable="false" viewBox="0 0 12 25" id="facebook-blue" xmlns="http://www.w3.org/2000/svg"><path fill="#3B5998" fill-rule="evenodd" d="M2.719 24.994h5.242v-12.6h3.657l.389-4.218H7.961V5.773c0-.994.208-1.388 1.209-1.388h2.837V.007h-3.63c-3.9 0-5.658 1.649-5.658 4.806v3.363H-.008v4.271h2.727v12.547z"></path></svg><svg focusable="false" viewBox="0 0 9 18" id="facebook-pdp" xmlns="http://www.w3.org/2000/svg"><path fill-rule="evenodd" d="M8.628 9.123h-2.59v8.873h-3.84V9.123H.373V5.989h1.825v-2.03c0-1.453.719-3.721 3.876-3.721l2.843.011v3.042H6.852c-.337 0-.814.163-.814.853V5.99h2.927l-.337 3.133z"></path></svg><svg focusable="false" viewBox="0 0 41.5 41.5" id="feedback" xmlns="http://www.w3.org/2000/svg"><path fill="#FFF" fill-rule="evenodd" stroke="#000" d="M.5.5h40v40H.5V.5z"></path><path fill-rule="evenodd" d="M12.5 26.5V16.336l8 5.6 7.999-5.6V26.5H12.5zm0-11.994V14.5h15.999v.006l-7.999 5.6-8-5.6z"></path></svg><svg focusable="false" viewBox="0 0 20 8" id="filter-icon" xmlns="http://www.w3.org/2000/svg"><path fill-rule="evenodd" d="M.001 2V0H20v2H.001zM14 5H.001V3H14v2zM7 8H.001V6H7v2z"></path></svg><svg focusable="false" viewBox="0 0 48 46" id="free-gift" xmlns="http://www.w3.org/2000/svg"><title>gift</title><g transform="translate(1 1)" stroke="#A0237F" stroke-width="2" fill="none" fill-rule="evenodd"><path d="M0 10h46v8H0zM42 18l-1.4 18.6c-.3 4.2-3.8 7.4-8 7.4H13.4c-4.2 0-7.7-3.2-8-7.4L4 18M23 10v34M13 10c-2.8 0-5-2.2-5-5s2.2-5 5-5 4.4 1 6.2 3.8C20 4.8 23 10 23 10M33 10c2.8 0 5-2.2 5-5s-2.2-5-5-5-4.4 1-6.2 3.8C26 4.8 23 10 23 10"></path></g></svg><svg focusable="false" viewBox="0 0 42 48" id="full-size" xmlns="http://www.w3.org/2000/svg"><title>shopping bag</title><g transform="translate(2 1)" stroke="#A0237F" stroke-width="2" fill="none" fill-rule="evenodd"><path d="M28.5 46h-19c-4.2 0-7.8-3.3-8-7.5L0 12h38l-1.6 26.5c-.2 4.2-3.7 7.5-7.9 7.5z"></path><path d="M11 22V8c0-4.4 3.6-8 8-8s8 3.6 8 8v14"></path></g></svg><svg focusable="false" viewBox="0 0 25 18" id="gift-cards" xmlns="http://www.w3.org/2000/svg"><path fill-rule="evenodd" d="M3.366 10.749h6.249v-.978H2.884v.978h.482M.481 5.859H25v-.978H0v.978h.481zM22.397-.008C23.827.01 24.982 1.185 25 2.64v12.712c-.018 1.456-1.173 2.632-2.603 2.649H2.604C1.173 17.984.017 16.808 0 15.352V2.64C.017 1.185 1.173.01 2.604-.008h19.793z"></path></svg><svg focusable="false" id="google-color" data-name="Layer 1" viewBox="0 0 375.74 383.41" xmlns="http://www.w3.org/2000/svg"><defs><style>.\31 4bd15ac-7942-4b24-b1f4-c142dfc3843a{fill:#4285f4}.beb7a60541-c458-467d-8c2c-77e91e6422dc{fill:#34a853}.\34 ac01167-02a5-4176-b8c4-0747526c2df7{fill:#fbbc05}.\35 cc75c6f-892d-4fbe-8175-52d2c218f39b{fill:#eb4335}</style></defs><title>google-elf</title><path class="be14bd15ac-7942-4b24-b1f4-c142dfc3843a" d="M674.67 664c0-15.76-1.28-27.26-4-39.19h-180v71.14h105.61c-2.13 17.68-13.63 44.31-39.19 62.2l-.36 2.38 56.91 44.09 3.94.39c36.21-33.44 57.09-82.65 57.09-141" transform="translate(-298.93 -468)"></path><path class="beb7a60541-c458-467d-8c2c-77e91e6422dc" d="M490.63 851.41c51.76 0 95.21-17 127-46.44l-60.49-46.86c-16.19 11.29-37.92 19.17-66.46 19.17-50.7 0-93.72-33.44-109.06-79.66l-2.25.19-59.18 45.8-.77 2.15a191.57 191.57 0 0 0 171.21 105.65" transform="translate(-298.93 -468)"></path><path class="be4ac01167-02a5-4176-b8c4-0747526c2df7" d="M381.57 697.62a118 118 0 0 1-6.39-37.92 124 124 0 0 1 6.18-37.92l-.11-2.54-59.92-46.53-2 .93a191.3 191.3 0 0 0 0 172.11l62.2-48.14" transform="translate(-298.93 -468)"></path><path class="be5cc75c6f-892d-4fbe-8175-52d2c218f39b" d="M490.63 542.13c36 0 60.28 15.55 74.13 28.54l54.1-52.83C585.63 487 542.39 468 490.63 468a191.57 191.57 0 0 0-171.26 105.65l62 48.14c15.55-46.22 58.58-79.66 109.27-79.66" transform="translate(-298.93 -468)"></path></svg><svg focusable="false" viewBox="0 0 28 18" id="google-plus-pdp" xmlns="http://www.w3.org/2000/svg"><path d="M24.2 7.3V3.9h-1.7v3.4h-3.4V9h3.4v3.4h1.7V9h3.4V7.3zM8.9 7.3v3.4h4.8c-.7 2-2.6 3.4-4.8 3.4-2.8 0-5.1-2.3-5.1-5.1s2.3-5.1 5.1-5.1c1.2 0 2.4.4 3.3 1.2l2.2-2.6C12.9 1.2 10.9.4 8.9.4 4.2.5.4 4.3.4 9s3.8 8.5 8.5 8.5 8.5-3.8 8.5-8.5V7.3H8.9z"></path></svg><svg focusable="false" viewBox="0 0 21 18" id="heart" xmlns="http://www.w3.org/2000/svg"><path fill-rule="evenodd" d="M19.364 9.329l-8.459 8.494a.611.611 0 0 1-.427.175h-.01a.602.602 0 0 1-.417-.175L1.59 9.317c-2.118-2.13-2.118-5.591 0-7.717A5.439 5.439 0 0 1 5.468-.004c1.47 0 2.847.57 3.878 1.604l1.132 1.139 1.132-1.127A5.439 5.439 0 0 1 15.487.004c1.467 0 2.845.572 3.877 1.608a5.475 5.475 0 0 1 0 7.717zm-3.877-8.192c-1.135 0-2.209.45-3.024 1.269l-1.558 1.568a.569.569 0 0 1-.437.176.602.602 0 0 1-.417-.175L8.492 2.393a4.246 4.246 0 0 0-3.024-1.259c-1.14 0-2.215.448-3.024 1.259a4.356 4.356 0 0 0 0 6.132l8.034 8.074 8.033-8.063a4.35 4.35 0 0 0 0-6.13 4.243 4.243 0 0 0-3.024-1.269z" fill="#DDD"></path></svg><svg focusable="false" viewBox="0 0 21 18" id="heart-black-outline" xmlns="http://www.w3.org/2000/svg"><path fill-rule="evenodd" d="M19.364 9.329l-8.459 8.494a.611.611 0 0 1-.427.175h-.01a.602.602 0 0 1-.417-.175L1.59 9.317c-2.118-2.13-2.118-5.591 0-7.717A5.439 5.439 0 0 1 5.468-.004c1.47 0 2.847.57 3.878 1.604l1.132 1.139 1.132-1.127A5.439 5.439 0 0 1 15.487.004c1.467 0 2.845.572 3.877 1.608a5.475 5.475 0 0 1 0 7.717zm-3.877-8.192c-1.135 0-2.209.45-3.024 1.269l-1.558 1.568a.569.569 0 0 1-.437.176.602.602 0 0 1-.417-.175L8.492 2.393a4.246 4.246 0 0 0-3.024-1.259c-1.14 0-2.215.448-3.024 1.259a4.356 4.356 0 0 0 0 6.132l8.034 8.074 8.033-8.063a4.35 4.35 0 0 0 0-6.13 4.243 4.243 0 0 0-3.024-1.269z"></path></svg><svg focusable="false" viewBox="0 0 21 18" id="heart-filled" xmlns="http://www.w3.org/2000/svg"><path fill-rule="evenodd" d="M19.345 9.474c-2.781 2.772-5.564 5.539-8.347 8.312a.778.778 0 0 1-1.054 0l-8.34-8.328a5.542 5.542 0 0 1 0-7.842A5.552 5.552 0 0 1 5.536-.003c1.423 0 2.847.538 3.931 1.619l1.015 1.016 1.001-1.001a5.576 5.576 0 0 1 7.862 0 5.54 5.54 0 0 1 0 7.843z"></path></svg><svg focusable="false" viewBox="0 0 21 18" id="heart-filled-pink" xmlns="http://www.w3.org/2000/svg"><path fill="#F26A6B" fill-rule="evenodd" d="M19.345 9.474c-2.781 2.772-5.564 5.539-8.347 8.312a.778.778 0 0 1-1.054 0l-8.34-8.328a5.542 5.542 0 0 1 0-7.842A5.552 5.552 0 0 1 5.536-.003c1.423 0 2.847.538 3.931 1.619l1.015 1.016 1.001-1.001a5.576 5.576 0 0 1 7.862 0 5.54 5.54 0 0 1 0 7.843z"></path></svg><svg focusable="false" viewBox="0 0 20 20" id="instagram" xmlns="http://www.w3.org/2000/svg"><path fill-rule="evenodd" d="M10 1.802c2.67 0 2.987.011 4.042.059 2.71.123 3.975 1.409 4.099 4.099.048 1.054.057 1.371.057 4.041 0 2.671-.01 2.986-.057 4.041-.124 2.687-1.387 3.975-4.099 4.099-1.055.048-1.37.058-4.042.058-2.67 0-2.987-.01-4.041-.058-2.716-.124-3.976-1.416-4.099-4.1-.048-1.054-.058-1.37-.058-4.041 0-2.67.011-2.986.058-4.041.124-2.689 1.387-3.976 4.099-4.099C7.014 1.813 7.33 1.802 10 1.802zM10 0C7.284 0 6.944.012 5.878.06 2.246.227.228 2.242.061 5.877.012 6.944 0 7.284 0 10s.012 3.057.06 4.123c.167 3.632 2.182 5.65 5.817 5.817 1.067.048 1.407.06 4.123.06s3.057-.012 4.123-.06c3.629-.167 5.652-2.182 5.816-5.817.049-1.066.061-1.407.061-4.123s-.012-3.056-.06-4.122c-.163-3.629-2.181-5.65-5.816-5.817C13.057.012 12.716 0 10 0zm0 4.865a5.135 5.135 0 1 0 0 10.27 5.135 5.135 0 0 0 0-10.27zm0 8.468a3.332 3.332 0 1 1 0-6.666 3.333 3.333 0 1 1 0 6.666zm5.338-9.87a1.2 1.2 0 1 0-.001 2.4 1.2 1.2 0 0 0 .001-2.4z"></path></svg><svg focusable="false" viewBox="0 0 17 4" id="loadmore-dots" xmlns="http://www.w3.org/2000/svg"><path fill-rule="evenodd" d="M15.038 4c-1.083 0-1.961-.895-1.961-2s.878-2 1.961-2C16.122 0 17 .895 17 2s-.878 2-1.962 2zM8.5 4c-1.084 0-1.962-.895-1.962-2S7.416 0 8.5 0c1.083 0 1.961.895 1.961 2S9.583 4 8.5 4zM1.961 4C.878 4 0 3.105 0 2s.878-2 1.961-2c1.084 0 1.962.895 1.962 2s-.878 2-1.962 2z"></path></svg><svg focusable="false" viewBox="0 0 700 700" id="lock-icon" xmlns="http://www.w3.org/2000/svg"><path d="M357.45 190.721c-5.331-5.33-11.8-7.993-19.417-7.993h-9.131v-54.821c0-35.022-12.559-65.093-37.685-90.218C266.093 12.563 236.025 0 200.998 0c-35.026 0-65.1 12.563-90.222 37.688-25.126 25.126-37.685 55.196-37.685 90.219v54.821h-9.135c-7.611 0-14.084 2.663-19.414 7.993-5.33 5.326-7.994 11.799-7.994 19.417V374.59c0 7.611 2.665 14.086 7.994 19.417 5.33 5.325 11.803 7.991 19.414 7.991H338.04c7.617 0 14.085-2.663 19.417-7.991 5.325-5.331 7.994-11.806 7.994-19.417V210.135c.004-7.612-2.669-14.084-8.001-19.414zm-83.363-7.993H127.909v-54.821c0-20.175 7.139-37.402 21.414-51.675 14.277-14.275 31.501-21.411 51.678-21.411 20.179 0 37.399 7.135 51.677 21.411 14.271 14.272 21.409 31.5 21.409 51.675v54.821z" fill="#FFF"></path></svg><svg focusable="false" viewBox="0 0 60 46" id="logo" xmlns="http://www.w3.org/2000/svg"><path fill-rule="evenodd" d="M58.905 4.279a5.68 5.68 0 0 0-4.866-2.725c-2.673 0-4.914 1.827-5.511 4.283-.338 1.3-.536 2.723-.514 5.011.003.289-.011 7.557-.011 7.845l8.074-.003v1.74l-8.078-.005-.002 25.179h-3.288l-.014-25.181v-1.715c0-.283-.002-7.553.009-7.847.271-7.401 3.942-10.868 8.85-10.868 2.557 0 4.955 1.213 6.435 3.522l-1.084.764zM40.159 45.66a.906.906 0 0 1-.912-.899c0-.497.408-.899.912-.899.503 0 .911.402.911.899a.905.905 0 0 1-.911.899zM32.273 3.009c0-1.546 1.253-2.825 2.592-2.825h.715v45.42h-3.307V3.009zM27.182 45.66a.905.905 0 0 1-.91-.899c0-.497.407-.899.91-.899.505 0 .911.402.911.899a.904.904 0 0 1-.911.899zM3.516 31.528c-.108 8.519 5.209 12.778 10.274 12.778 4.575 0 7.298-2.457 8.605-3.658l.98.983c-1.743 1.911-5.173 4.368-9.912 4.368-7.57 0-13.452-6.008-13.452-13.98 0-7.59 5.719-13.489 12.689-13.489 7.255 0 11.636 5.186 11.967 12.531.015.338.005.467.005.467H3.516zm9.239-11.579c-3.758 0-8.804 3.442-9.239 10.05h17.79c-.218-6.116-3.866-10.05-8.551-10.05zM52.92 43.862c.503 0 .91.402.91.899a.905.905 0 0 1-.91.899.906.906 0 0 1-.913-.899c0-.497.408-.899.913-.899z"></path></svg><svg focusable="false" viewBox="0 0 16 10" id="mail" xmlns="http://www.w3.org/2000/svg"><path fill-rule="evenodd" d="M16.001.288a3.355 3.355 0 0 0-.003-.031c-.002-.009-.003-.019-.006-.028a.276.276 0 0 0-.02-.055L15.961.15a.444.444 0 0 0-.019-.027l-.006-.011-.01-.009a.16.16 0 0 0-.022-.023.279.279 0 0 0-.07-.047l-.028-.011a.72.72 0 0 0-.055-.015l-.03-.003-.014-.001H.294L.279.004C.268.004.258.006.248.007L.22.013a.198.198 0 0 0-.053.02C.158.036.15.041.142.046a.213.213 0 0 0-.025.016L.096.079.074.103.065.112l-.007.01A.683.683 0 0 0 .04.15L.027.174l-.01.028a.143.143 0 0 0-.009.027 1.304 1.304 0 0 0-.006.028L0 .288l-.001.013V9.7c0 .165.131.298.295.298h15.413a.296.296 0 0 0 .295-.298V.301l-.001-.013zm-1.118.311L8.001 6.308 1.118.599h13.765zM.588 9.402V.931l7.226 5.994a.29.29 0 0 0 .373 0L15.413.931v8.471H.588z"></path></svg><svg focusable="false" viewBox="0 0 20 15" id="mail-footer" xmlns="http://www.w3.org/2000/svg"><path fill-rule="evenodd" d="M.139 15V2.296l9.552 6.999 9.552-6.999V15H.139zm0-14.992V0h19.104v.008l-9.552 7-9.552-7z"></path></svg><svg focusable="false" viewBox="0 0 16 10" id="mail-light" xmlns="http://www.w3.org/2000/svg"><path fill="#FFF" fill-rule="evenodd" d="M16.001.288a.29.29 0 0 0-.004-.031l-.005-.028a.276.276 0 0 0-.008-.027c-.003-.01-.008-.019-.012-.029L15.96.15l-.018-.027a.067.067 0 0 0-.007-.011l-.009-.01-.023-.022a.163.163 0 0 0-.02-.017.138.138 0 0 0-.025-.017l-.024-.014-.028-.011a.198.198 0 0 0-.026-.008c-.009-.003-.019-.004-.028-.006a1.519 1.519 0 0 1-.03-.003l-.014-.001H.293L.279.004l-.03.003C.239.009.23.01.221.013L.194.021a.203.203 0 0 0-.026.011L.143.046a.213.213 0 0 0-.025.016L.097.08.075.102l-.01.01a.036.036 0 0 1-.007.01L.041.15.028.173.017.202C.014.21.01.22.009.229.006.238.005.247.003.257.002.267 0 .277 0 .288l-.001.013V9.7c0 .165.132.299.294.299h15.415a.297.297 0 0 0 .294-.299V.301l-.001-.013zM14.883.6L8 6.308 1.117.6h13.766zM.587 9.402V.931l7.227 5.994a.292.292 0 0 0 .373 0L15.412.931v8.471H.587z"></path></svg><svg focusable="false" viewBox="0 0 21 15" id="mail-pdp" xmlns="http://www.w3.org/2000/svg"><path fill-rule="evenodd" d="M.343 14.891V2.731l9.896 6.701 9.896-6.701v12.16H.343zm0-14.35V.534h19.792v.007l-9.896 6.701L.343.541z"></path></svg><svg focusable="false" viewBox="0 0 14 13" id="message" xmlns="http://www.w3.org/2000/svg"><path fill="#999" fill-rule="evenodd" d="M0 12.396V3.757c0-.16.066-.314.184-.427L3.477.177A.644.644 0 0 1 3.923 0h6.085c.347 0 .629.27.629.603v1.451l-1.259.905V1.206H4.553v2.551a.617.617 0 0 1-.63.603H1.258v7.432h8.12v-1.453l1.259-.907v2.964a.617.617 0 0 1-.63.603H.629A.617.617 0 0 1 0 12.396zM14.007 5.45a.48.48 0 0 1-.195.32L8.178 9.823a.516.516 0 0 1-.239.095l-2.854.355h-.064a.496.496 0 0 1-.506-.484.46.46 0 0 1 .041-.189l1.128-2.535a.487.487 0 0 1 .159-.196l5.635-4.049a.522.522 0 0 1 .374-.093c1.379.184 2.343 1.402 2.155 2.723zM7.671 8.976c.003-.656-.453-1.232-1.112-1.406l-.44.986c.213.127.37.325.44.556l1.112-.136z"></path></svg><svg focusable="false" viewBox="0 0 42 42" id="minus"><path d="M0 20h40v2H0z"></path></svg><svg focusable="false" data-name="myaccount" viewBox="0 0 24 24" id="myaccount" xmlns="http://www.w3.org/2000/svg"><title>Sign In</title><g fill="#FFF" fill-rule="nonzero"><path d="M12 0C5.373 0 0 5.373 0 12s5.373 12 12 12 12-5.373 12-12A12 12 0 0 0 12 0zm0 1a11 11 0 0 1 8.865 17.5C20.5 17.3 19.5 16.335 18 15.86l-6-1.12-5.925 1.115a3.88 3.88 0 0 0-2.94 2.645A11 11 0 0 1 12 1zm0 22a10.97 10.97 0 0 1-8-3.46v-.125c0-1.5 1.195-2.305 2.29-2.58L12 15.76l5.705 1.065c.71.225 2.295.92 2.295 2.585v.13A10.97 10.97 0 0 1 12 23z"></path><path d="M8.4 9.455C8.785 11.61 10.2 13 12 13s3.19-1.355 3.6-3.535c.065-.33.38-2 .395-2.42A3.775 3.775 0 0 0 14.94 4.25a4.09 4.09 0 0 0-5.905.025A3.71 3.71 0 0 0 8 7.05c.03.415.365 2.21.4 2.405zm1.36-4.5a3.09 3.09 0 0 1 4.455 0A2.78 2.78 0 0 1 15 7c0 .26-.24 1.535-.38 2.275C14.37 10.595 13.55 12 12 12s-2.39-1.465-2.615-2.72C9.245 8.535 9 7.26 9 7a2.715 2.715 0 0 1 .76-2.04v-.005z"></path></g></svg><svg focusable="false" viewBox="0 0 15.5 21.5" id="one-up" xmlns="http://www.w3.org/2000/svg"><path fill-rule="evenodd" d="M.5.5h14v20H.5V.5z"></path></svg><svg focusable="false" viewBox="0 0 19 20" id="phone-footer" xmlns="http://www.w3.org/2000/svg"><path fill-rule="evenodd" d="M13.358 13.266C5.824 21.93 3.33 19.341 2.22 18.387c-.088-.074-1.477-1.341-1.483-1.346l4.486-5.112c.005.006 1.386 1.263 1.45 1.317 1.575 1.419 7.41-5.293 5.896-6.776l-1.461-1.333L15.575 0l1.478 1.35c.999.956 3.775 3.324-3.695 11.916z"></path></svg><svg focusable="false" viewBox="0 0 17 21" id="pin-footer" xmlns="http://www.w3.org/2000/svg"><path fill-rule="evenodd" d="M8.73 5.661c-1.366 0-2.475 1.177-2.475 2.629 0 1.453 1.109 2.629 2.475 2.629s2.475-1.176 2.475-2.629c0-1.452-1.109-2.629-2.475-2.629m5.845-3.068c3.195 3.418 3.195 8.935 0 12.354L8.73 20.998l-5.845-6.029c-3.209-3.42-3.209-8.955 0-12.376l.046-.044C4.467.91 6.554-.013 8.733-.013c2.177 0 4.264.923 5.801 2.562l.041.044z"></path></svg><svg focusable="false" viewBox="0 0 18 18" id="pinterest" xmlns="http://www.w3.org/2000/svg"><path fill-rule="evenodd" d="M8.999 0a9 9 0 0 0-3.613 17.243c-.025-.628-.004-1.383.157-2.067l1.158-4.904s-.288-.574-.288-1.424c0-1.333.774-2.33 1.736-2.33.819 0 1.214.615 1.214 1.352 0 .823-.524 2.054-.794 3.194-.226.954.478 1.733 1.42 1.733 1.705 0 2.854-2.19 2.854-4.785 0-1.973-1.329-3.449-3.745-3.449-2.73 0-4.431 2.036-4.431 4.31 0 .784.231 1.337.593 1.765.167.197.19.276.13.502-.044.166-.143.564-.184.722-.06.228-.244.31-.45.225-1.258-.513-1.844-1.89-1.844-3.438 0-2.556 2.157-5.622 6.433-5.622 3.436 0 5.698 2.486 5.698 5.156 0 3.53-1.963 6.168-4.857 6.168-.971 0-1.885-.526-2.198-1.122 0 0-.523 2.073-.634 2.474-.19.694-.564 1.387-.905 1.928A9 9 0 1 0 8.999 0z"></path></svg><svg focusable="false" viewBox="0 0 16 18" id="pinterest-pdp" xmlns="http://www.w3.org/2000/svg"><path fill-rule="evenodd" d="M9.48 13.016c-1.169 0-2.268-.594-2.643-1.27 0 0-.63 2.347-.762 2.8-.469 1.6-1.849 3.202-1.955 3.333-.075.092-.239.063-.257-.058-.03-.204-.382-2.223.032-3.871L5.287 8.4s-.345-.65-.345-1.612c0-1.51.93-2.636 2.088-2.636.984 0 1.461.695 1.461 1.529 0 .932-.631 2.324-.955 3.615-.274 1.08.574 1.961 1.708 1.961 2.051 0 3.432-2.479 3.432-5.415 0-2.232-1.599-3.904-4.506-3.904-3.282 0-5.33 2.305-5.33 4.879 0 .887.28 1.513.715 1.998.2.222.228.312.156.568-.053.186-.171.638-.222.816-.072.258-.292.351-.542.255C1.435 9.874.73 8.315.73 6.563.73 3.67 3.325.2 8.468.2c4.133 0 6.854 2.815 6.854 5.835 0 3.996-2.36 6.981-5.842 6.981z"></path></svg><svg focusable="false" viewBox="0 0 51 51" id="play-button" xmlns="http://www.w3.org/2000/svg"><path fill-rule="evenodd" d="M25.5 1C39.031 1 50 11.969 50 25.5S39.031 50 25.5 50 1 39.031 1 25.5 11.969 1 25.5 1z"></path><path fill="#FFF" fill-rule="evenodd" d="M37.291 25.802L21.312 38.234V13.37l15.979 12.432z"></path></svg><svg focusable="false" viewBox="0 0 20 20" id="play-button-alt" xmlns="http://www.w3.org/2000/svg"><path fill-rule="evenodd" d="M10 0C4.478 0 0 4.478 0 10c0 5.523 4.478 10 10 10 5.523 0 10-4.477 10-10 0-5.522-4.477-10-10-10zM8.141 14.069V5.931L13.76 10l-5.619 4.069z"></path></svg><svg focusable="false" viewBox="0 0 17 17" id="plus-icon" xmlns="http://www.w3.org/2000/svg"><path fill-rule="evenodd" d="M17 9H9v8h-.999V9H0V8h8.001V0H9v8h8v1z"></path></svg><svg focusable="false" viewBox="0 0 17 17" id="plus-icon-alt" xmlns="http://www.w3.org/2000/svg"><path fill-rule="evenodd" d="M17 9H9v8h-.999V9H0V8h8.001V0H9v8h8v1z"></path></svg><svg focusable="false" viewBox="0 0 10 10" id="radio-dot" xmlns="http://www.w3.org/2000/svg"><circle cx="5" cy="5" r="5"></circle></svg><svg focusable="false" viewBox="0 0 10 10" id="radio-dot-gray" xmlns="http://www.w3.org/2000/svg"><circle cx="5" cy="5" r="3" fill="#D0D2D3"></circle></svg><svg focusable="false" viewBox="0 0 18 18" id="search" xmlns="http://www.w3.org/2000/svg"><path fill-rule="evenodd" d="M17.263 18.003l-5.072-5.073a7.307 7.307 0 0 1-4.827 1.803 7.316 7.316 0 0 1-5.207-2.158A7.322 7.322 0 0 1 0 7.365a7.32 7.32 0 0 1 2.157-5.209A7.314 7.314 0 0 1 7.364-.001c1.967 0 3.817.766 5.208 2.157 2.749 2.75 2.866 7.148.354 10.039l5.071 5.073-.734.735zM7.364 1.038c-1.69 0-3.278.657-4.472 1.853a6.288 6.288 0 0 0-1.854 4.474 6.29 6.29 0 0 0 1.854 4.475 6.284 6.284 0 0 0 4.472 1.853 6.29 6.29 0 0 0 4.473-1.853 6.337 6.337 0 0 0 0-8.949 6.281 6.281 0 0 0-4.473-1.853z"></path></svg><svg focusable="false" viewBox="0 0 19 19" id="send" xmlns="http://www.w3.org/2000/svg"><path fill-rule="evenodd" d="M18.879.127a.429.429 0 0 0-.451-.1L.281 6.637a.43.43 0 0 0 .001.808l8.274 3.001 3.003 8.272a.43.43 0 0 0 .403.283h.001a.429.429 0 0 0 .404-.282L18.979.578a.43.43 0 0 0-.1-.451zm-6.916 17.188l-2.574-7.093 2.521-2.521a.43.43 0 0 0-.607-.608L8.781 9.614 1.685 7.04l16.171-5.89-5.893 16.165z"></path></svg><svg focusable="false" viewBox="0 0 600 600" id="shipping-check-mark" xmlns="http://www.w3.org/2000/svg"><path d="M437.019 74.98C388.667 26.629 324.38 0 256 0 187.619 0 123.331 26.629 74.98 74.98 26.628 123.332 0 187.62 0 256s26.628 132.667 74.98 181.019C123.332 485.371 187.619 512 256 512c68.38 0 132.667-26.629 181.019-74.981C485.371 388.667 512 324.38 512 256s-26.629-132.667-74.981-181.02zM256 482C131.383 482 30 380.617 30 256S131.383 30 256 30s226 101.383 226 226-101.383 226-226 226z"></path><path d="M378.305 173.859c-5.857-5.856-15.355-5.856-21.212.001L224.634 306.319l-69.727-69.727c-5.857-5.857-15.355-5.857-21.213 0-5.858 5.857-5.858 15.355 0 21.213l80.333 80.333a14.953 14.953 0 0 0 10.606 4.393c3.838 0 7.678-1.465 10.606-4.393l143.066-143.066c5.858-5.857 5.858-15.355 0-21.213z"></path></svg><svg focusable="false" viewBox="0 0 19 18" id="snapchat" xmlns="http://www.w3.org/2000/svg"><path fill-rule="evenodd" d="M4.62 3.044c-.475 1.071-.288 2.988-.212 4.33-.513.286-1.172-.216-1.545-.216-.388 0-.851.256-.924.639-.052.275.071.676.951 1.026.341.136 1.151.295 1.339.739.263.625-1.355 3.507-3.895 3.927a.395.395 0 0 0-.329.414c.044.776 1.775 1.08 2.542 1.2.079.107.142.557.243.901a.441.441 0 0 0 .461.337c.39 0 1.039-.302 2.168-.114 1.107.185 2.147 1.764 4.145 1.764 1.857 0 2.965-1.586 4.031-1.764.617-.103 1.147-.07 1.739.046.408.08.774.125.89-.278.103-.348.165-.79.242-.895.76-.118 2.499-.422 2.543-1.198a.396.396 0 0 0-.33-.413c-2.497-.415-4.164-3.288-3.894-3.928.187-.443.991-.601 1.338-.739.645-.255.968-.57.961-.934-.009-.466-.567-.744-.977-.744-.417 0-1.017.497-1.502.228.076-1.352.263-3.261-.211-4.331-.899-2.025-2.899-3.049-4.898-3.049-1.986 0-3.97 1.01-4.876 3.052z"></path></svg><svg focusable="false" viewBox="0 0 21 26" id="store-locator" xmlns="http://www.w3.org/2000/svg"><path fill-rule="evenodd" d="M10.715 7.567c-1.665 0-3.014 1.398-3.014 3.124 0 1.726 1.349 3.124 3.014 3.124 1.664 0 3.014-1.398 3.014-3.124 0-1.726-1.35-3.124-3.014-3.124m7.118-3.646c3.893 4.062 3.893 10.619 0 14.68l-7.118 7.191-7.119-7.165c-3.909-4.064-3.909-10.641 0-14.706l.055-.051C5.522 1.92 8.064.825 10.718.825c2.651 0 5.194 1.095 7.065 3.045l.05.051z"></path></svg><svg focusable="false" viewBox="0 0 13 13" id="tool-tip" xmlns="http://www.w3.org/2000/svg"><path fill="#999" fill-rule="evenodd" d="M6.5 0a6.5 6.5 0 1 1 0 13 6.5 6.5 0 1 1 0-13z"></path><path fill="#FFF" fill-rule="evenodd" d="M7.104 7.977H5.805a19.12 19.12 0 0 1-.005-.346c0-.426.069-.778.209-1.053.139-.275.417-.585.835-.93.418-.344.668-.57.75-.676a.944.944 0 0 0-.146-1.284c-.223-.201-.522-.302-.899-.302-.364 0-.668.105-.913.315-.244.21-.413.53-.505.961l-1.313-.166c.037-.616.295-1.139.777-1.569.48-.431 1.111-.646 1.893-.646.822 0 1.475.218 1.961.653.486.436.729.943.729 1.521 0 .32-.088.623-.267.909-.179.286-.56.675-1.144 1.168-.302.254-.491.459-.563.614-.073.155-.107.432-.1.831zM5.805 9.93V8.479h1.432V9.93H5.805z"></path></svg><svg focusable="false" viewBox="0 0 512 512" id="tooltip-bp-qmark" xmlns="http://www.w3.org/2000/svg"><circle cx="256" cy="378.5" r="25"></circle><path d="M256 0C114.516 0 0 114.497 0 256c0 141.484 114.497 256 256 256 141.484 0 256-114.497 256-256C512 114.516 397.503 0 256 0zm0 472c-119.377 0-216-96.607-216-216 0-119.377 96.607-216 216-216 119.377 0 216 96.607 216 216 0 119.377-96.607 216-216 216z"></path><path d="M256 128.5c-44.112 0-80 35.888-80 80 0 11.046 8.954 20 20 20s20-8.954 20-20c0-22.056 17.944-40 40-40s40 17.944 40 40-17.944 40-40 40c-11.046 0-20 8.954-20 20v50c0 11.046 8.954 20 20 20s20-8.954 20-20v-32.531c34.466-8.903 60-40.26 60-77.469 0-44.112-35.888-80-80-80z"></path></svg><svg focusable="false" viewBox="0 0 24 27" id="track-package" xmlns="http://www.w3.org/2000/svg"><path fill-rule="evenodd" d="M12.974 27V14.413l1.225-.7L24 8.122v12.587L12.974 27zm-1.019-14.071l-4.241-2.42-.645-.331 11.326-6.464 4.885 2.75-7.108 4.062-4.217 2.403zM.624 6.464L11.955 0l4.24 2.426L4.869 8.89.624 6.464zm3.559 7.31l2.03 1.031v-3.064l4.734 2.694v12.497L.001 20.687V8.189l4.182 2.382v3.203z"></path></svg><svg focusable="false" viewBox="0 0 17 15" id="twitter-pdp" xmlns="http://www.w3.org/2000/svg"><path fill-rule="evenodd" d="M14.661 4.35c.006.145.01.292.01.439 0 4.488-3.372 9.662-9.54 9.66a9.28 9.28 0 0 1-5.139-1.554 6.645 6.645 0 0 0 4.977-1.412c-1.467-.033-2.688-1.034-3.115-2.405.205.041.449.065.666.066.305.002.699-.039.98-.115C1.966 8.702.976 7.299.976 5.626v-.043c.605.263.804.423 1.353.447-.9-.627-1.643-1.691-1.643-2.888 0-.633.158-1.223.447-1.729 1.654 2.109 4.121 3.509 6.908 3.682a3.52 3.52 0 0 1-.088-.781c0-1.89 1.501-3.398 3.353-3.368a3.384 3.384 0 0 1 2.447 1.112 6.545 6.545 0 0 0 2.129-.792 3.329 3.329 0 0 1-1.474 1.857 6.572 6.572 0 0 0 1.926-.508 6.734 6.734 0 0 1-1.673 1.735z"></path></svg><svg focusable="false" viewBox="0 0 31.5 21.5" id="two-up" xmlns="http://www.w3.org/2000/svg"><path fill-rule="evenodd" d="M16.5 20.5V.5h14v20h-14zM.5.5h13.999v20H.5V.5z"></path></svg><svg focusable="false" viewBox="0 0 23 16" id="youtube" xmlns="http://www.w3.org/2000/svg"><path fill-rule="evenodd" d="M22.515 2.497A2.871 2.871 0 0 0 20.483.476C18.69-.002 11.5-.002 11.5-.002s-7.189 0-8.982.478A2.874 2.874 0 0 0 .485 2.497C.005 4.28.005 8.001.005 8.001s0 3.72.48 5.503a2.872 2.872 0 0 0 2.033 2.021c1.793.478 8.982.478 8.982.478s7.19 0 8.983-.478a2.87 2.87 0 0 0 2.032-2.021c.481-1.783.481-5.503.481-5.503s0-3.721-.481-5.504zM9.201 11.43V4.571l5.973 3.43-5.973 3.429z"></path></svg></defs></svg>