<svg focusable="false" viewBox="0 0 21 18" id="heart" xmlns="http://www.w3.org/2000/svg"><path fill-rule="evenodd" d="M19.364 9.329l-8.459 8.494a.611.611 0 0 1-.427.175h-.01a.602.602 0 0 1-.417-.175L1.59 9.317c-2.118-2.13-2.118-5.591 0-7.717A5.439 5.439 0 0 1 5.468-.004c1.47 0 2.847.57 3.878 1.604l1.132 1.139 1.132-1.127A5.439 5.439 0 0 1 15.487.004c1.467 0 2.845.572 3.877 1.608a5.475 5.475 0 0 1 0 7.717zm-3.877-8.192c-1.135 0-2.209.45-3.024 1.269l-1.558 1.568a.569.569 0 0 1-.437.176.602.602 0 0 1-.417-.175L8.492 2.393a4.246 4.246 0 0 0-3.024-1.259c-1.14 0-2.215.448-3.024 1.259a4.356 4.356 0 0 0 0 6.132l8.034 8.074 8.033-8.063a4.35 4.35 0 0 0 0-6.13 4.243 4.243 0 0 0-3.024-1.269z" fill="#DDD"></path></svg>