<svg focusable="false" data-name="myaccount" viewBox="0 0 24 24" id="myaccount" xmlns="http://www.w3.org/2000/svg"><title>Sign In</title><g fill="#FFF" fill-rule="nonzero"><path d="M12 0C5.373 0 0 5.373 0 12s5.373 12 12 12 12-5.373 12-12A12 12 0 0 0 12 0zm0 1a11 11 0 0 1 8.865 17.5C20.5 17.3 19.5 16.335 18 15.86l-6-1.12-5.925 1.115a3.88 3.88 0 0 0-2.94 2.645A11 11 0 0 1 12 1zm0 22a10.97 10.97 0 0 1-8-3.46v-.125c0-1.5 1.195-2.305 2.29-2.58L12 15.76l5.705 1.065c.71.225 2.295.92 2.295 2.585v.13A10.97 10.97 0 0 1 12 23z"></path><path d="M8.4 9.455C8.785 11.61 10.2 13 12 13s3.19-1.355 3.6-3.535c.065-.33.38-2 .395-2.42A3.775 3.775 0 0 0 14.94 4.25a4.09 4.09 0 0 0-5.905.025A3.71 3.71 0 0 0 8 7.05c.03.415.365 2.21.4 2.405zm1.36-4.5a3.09 3.09 0 0 1 4.455 0A2.78 2.78 0 0 1 15 7c0 .26-.24 1.535-.38 2.275C14.37 10.595 13.55 12 12 12s-2.39-1.465-2.615-2.72C9.245 8.535 9 7.26 9 7a2.715 2.715 0 0 1 .76-2.04v-.005z"></path></g></svg>