<svg focusable="false" viewBox="0 0 16 18" id="pinterest-pdp" xmlns="http://www.w3.org/2000/svg"><path fill-rule="evenodd" d="M9.48 13.016c-1.169 0-2.268-.594-2.643-1.27 0 0-.63 2.347-.762 2.8-.469 1.6-1.849 3.202-1.955 3.333-.075.092-.239.063-.257-.058-.03-.204-.382-2.223.032-3.871L5.287 8.4s-.345-.65-.345-1.612c0-1.51.93-2.636 2.088-2.636.984 0 1.461.695 1.461 1.529 0 .932-.631 2.324-.955 3.615-.274 1.08.574 1.961 1.708 1.961 2.051 0 3.432-2.479 3.432-5.415 0-2.232-1.599-3.904-4.506-3.904-3.282 0-5.33 2.305-5.33 4.879 0 .887.28 1.513.715 1.998.2.222.228.312.156.568-.053.186-.171.638-.222.816-.072.258-.292.351-.542.255C1.435 9.874.73 8.315.73 6.563.73 3.67 3.325.2 8.468.2c4.133 0 6.854 2.815 6.854 5.835 0 3.996-2.36 6.981-5.842 6.981z"></path></svg>