<svg focusable="false" viewBox="0 0 19 18" id="snapchat" xmlns="http://www.w3.org/2000/svg"><path fill-rule="evenodd" d="M4.62 3.044c-.475 1.071-.288 2.988-.212 4.33-.513.286-1.172-.216-1.545-.216-.388 0-.851.256-.924.639-.052.275.071.676.951 1.026.341.136 1.151.295 1.339.739.263.625-1.355 3.507-3.895 3.927a.395.395 0 0 0-.329.414c.044.776 1.775 1.08 2.542 1.2.079.107.142.557.243.901a.441.441 0 0 0 .461.337c.39 0 1.039-.302 2.168-.114 1.107.185 2.147 1.764 4.145 1.764 1.857 0 2.965-1.586 4.031-1.764.617-.103 1.147-.07 1.739.046.408.08.774.125.89-.278.103-.348.165-.79.242-.895.76-.118 2.499-.422 2.543-1.198a.396.396 0 0 0-.33-.413c-2.497-.415-4.164-3.288-3.894-3.928.187-.443.991-.601 1.338-.739.645-.255.968-.57.961-.934-.009-.466-.567-.744-.977-.744-.417 0-1.017.497-1.502.228.076-1.352.263-3.261-.211-4.331-.899-2.025-2.899-3.049-4.898-3.049-1.986 0-3.97 1.01-4.876 3.052z"></path></svg>