<svg focusable="false" viewBox="0 0 16 10" id="mail" xmlns="http://www.w3.org/2000/svg"><path fill-rule="evenodd" d="M16.001.288a3.355 3.355 0 0 0-.003-.031c-.002-.009-.003-.019-.006-.028a.276.276 0 0 0-.02-.055L15.961.15a.444.444 0 0 0-.019-.027l-.006-.011-.01-.009a.16.16 0 0 0-.022-.023.279.279 0 0 0-.07-.047l-.028-.011a.72.72 0 0 0-.055-.015l-.03-.003-.014-.001H.294L.279.004C.268.004.258.006.248.007L.22.013a.198.198 0 0 0-.053.02C.158.036.15.041.142.046a.213.213 0 0 0-.025.016L.096.079.074.103.065.112l-.007.01A.683.683 0 0 0 .04.15L.027.174l-.01.028a.143.143 0 0 0-.009.027 1.304 1.304 0 0 0-.006.028L0 .288l-.001.013V9.7c0 .165.131.298.295.298h15.413a.296.296 0 0 0 .295-.298V.301l-.001-.013zm-1.118.311L8.001 6.308 1.118.599h13.765zM.588 9.402V.931l7.226 5.994a.29.29 0 0 0 .373 0L15.413.931v8.471H.588z"></path></svg>