<svg focusable="false" viewBox="0 0 15 15" id="chat-pdp" xmlns="http://www.w3.org/2000/svg"><path fill-rule="evenodd" d="M14.615 11.616h-4.496l.074 2.811a.503.503 0 0 1-.262.512.55.55 0 0 1-.257.064.66.66 0 0 1-.458-.194l-3.22-3.194H.385A.386.386 0 0 1 0 11.227V.386c0-.214.172-.387.385-.387h14.23c.213 0 .385.173.385.387v10.843a.386.386 0 0 1-.385.387zM14.231.773H.769V10.84h5.384a.386.386 0 0 1 .27.112l2.981 2.956-.069-2.671v-.01c0-.214.172-.387.384-.387h4.512V.773zM4.077 7.038h6.539v.774H4.077v-.774zm0-2.904h6.539v.774H4.077v-.774z"></path></svg>