<svg focusable="false" viewBox="0 0 18 18" id="search" xmlns="http://www.w3.org/2000/svg"><path fill-rule="evenodd" d="M17.263 18.003l-5.072-5.073a7.307 7.307 0 0 1-4.827 1.803 7.316 7.316 0 0 1-5.207-2.158A7.322 7.322 0 0 1 0 7.365a7.32 7.32 0 0 1 2.157-5.209A7.314 7.314 0 0 1 7.364-.001c1.967 0 3.817.766 5.208 2.157 2.749 2.75 2.866 7.148.354 10.039l5.071 5.073-.734.735zM7.364 1.038c-1.69 0-3.278.657-4.472 1.853a6.288 6.288 0 0 0-1.854 4.474 6.29 6.29 0 0 0 1.854 4.475 6.284 6.284 0 0 0 4.472 1.853 6.29 6.29 0 0 0 4.473-1.853 6.337 6.337 0 0 0 0-8.949 6.281 6.281 0 0 0-4.473-1.853z"></path></svg>