<svg focusable="false" viewBox="0 0 14 13" id="message" xmlns="http://www.w3.org/2000/svg"><path fill="#999" fill-rule="evenodd" d="M0 12.396V3.757c0-.16.066-.314.184-.427L3.477.177A.644.644 0 0 1 3.923 0h6.085c.347 0 .629.27.629.603v1.451l-1.259.905V1.206H4.553v2.551a.617.617 0 0 1-.63.603H1.258v7.432h8.12v-1.453l1.259-.907v2.964a.617.617 0 0 1-.63.603H.629A.617.617 0 0 1 0 12.396zM14.007 5.45a.48.48 0 0 1-.195.32L8.178 9.823a.516.516 0 0 1-.239.095l-2.854.355h-.064a.496.496 0 0 1-.506-.484.46.46 0 0 1 .041-.189l1.128-2.535a.487.487 0 0 1 .159-.196l5.635-4.049a.522.522 0 0 1 .374-.093c1.379.184 2.343 1.402 2.155 2.723zM7.671 8.976c.003-.656-.453-1.232-1.112-1.406l-.44.986c.213.127.37.325.44.556l1.112-.136z"></path></svg>