<svg focusable="false" viewBox="0 0 60 46" id="logo" xmlns="http://www.w3.org/2000/svg"><path fill-rule="evenodd" d="M58.905 4.279a5.68 5.68 0 0 0-4.866-2.725c-2.673 0-4.914 1.827-5.511 4.283-.338 1.3-.536 2.723-.514 5.011.003.289-.011 7.557-.011 7.845l8.074-.003v1.74l-8.078-.005-.002 25.179h-3.288l-.014-25.181v-1.715c0-.283-.002-7.553.009-7.847.271-7.401 3.942-10.868 8.85-10.868 2.557 0 4.955 1.213 6.435 3.522l-1.084.764zM40.159 45.66a.906.906 0 0 1-.912-.899c0-.497.408-.899.912-.899.503 0 .911.402.911.899a.905.905 0 0 1-.911.899zM32.273 3.009c0-1.546 1.253-2.825 2.592-2.825h.715v45.42h-3.307V3.009zM27.182 45.66a.905.905 0 0 1-.91-.899c0-.497.407-.899.91-.899.505 0 .911.402.911.899a.904.904 0 0 1-.911.899zM3.516 31.528c-.108 8.519 5.209 12.778 10.274 12.778 4.575 0 7.298-2.457 8.605-3.658l.98.983c-1.743 1.911-5.173 4.368-9.912 4.368-7.57 0-13.452-6.008-13.452-13.98 0-7.59 5.719-13.489 12.689-13.489 7.255 0 11.636 5.186 11.967 12.531.015.338.005.467.005.467H3.516zm9.239-11.579c-3.758 0-8.804 3.442-9.239 10.05h17.79c-.218-6.116-3.866-10.05-8.551-10.05zM52.92 43.862c.503 0 .91.402.91.899a.905.905 0 0 1-.91.899.906.906 0 0 1-.913-.899c0-.497.408-.899.913-.899z"></path></svg>