<svg focusable="false" viewBox="0 0 17 15" id="twitter-pdp" xmlns="http://www.w3.org/2000/svg"><path fill-rule="evenodd" d="M14.661 4.35c.006.145.01.292.01.439 0 4.488-3.372 9.662-9.54 9.66a9.28 9.28 0 0 1-5.139-1.554 6.645 6.645 0 0 0 4.977-1.412c-1.467-.033-2.688-1.034-3.115-2.405.205.041.449.065.666.066.305.002.699-.039.98-.115C1.966 8.702.976 7.299.976 5.626v-.043c.605.263.804.423 1.353.447-.9-.627-1.643-1.691-1.643-2.888 0-.633.158-1.223.447-1.729 1.654 2.109 4.121 3.509 6.908 3.682a3.52 3.52 0 0 1-.088-.781c0-1.89 1.501-3.398 3.353-3.368a3.384 3.384 0 0 1 2.447 1.112 6.545 6.545 0 0 0 2.129-.792 3.329 3.329 0 0 1-1.474 1.857 6.572 6.572 0 0 0 1.926-.508 6.734 6.734 0 0 1-1.673 1.735z"></path></svg>