<svg focusable="false" viewBox="0 0 23 16" id="youtube" xmlns="http://www.w3.org/2000/svg"><path fill-rule="evenodd" d="M22.515 2.497A2.871 2.871 0 0 0 20.483.476C18.69-.002 11.5-.002 11.5-.002s-7.189 0-8.982.478A2.874 2.874 0 0 0 .485 2.497C.005 4.28.005 8.001.005 8.001s0 3.72.48 5.503a2.872 2.872 0 0 0 2.033 2.021c1.793.478 8.982.478 8.982.478s7.19 0 8.983-.478a2.87 2.87 0 0 0 2.032-2.021c.481-1.783.481-5.503.481-5.503s0-3.721-.481-5.504zM9.201 11.43V4.571l5.973 3.43-5.973 3.429z"></path></svg>