<svg focusable="false" id="google-color" data-name="Layer 1" viewBox="0 0 375.74 383.41" xmlns="http://www.w3.org/2000/svg"><defs><style>.\31 4bd15ac-7942-4b24-b1f4-c142dfc3843a{fill:#4285f4}.beb7a60541-c458-467d-8c2c-77e91e6422dc{fill:#34a853}.\34 ac01167-02a5-4176-b8c4-0747526c2df7{fill:#fbbc05}.\35 cc75c6f-892d-4fbe-8175-52d2c218f39b{fill:#eb4335}</style></defs><title>google-elf</title><path class="be14bd15ac-7942-4b24-b1f4-c142dfc3843a" d="M674.67 664c0-15.76-1.28-27.26-4-39.19h-180v71.14h105.61c-2.13 17.68-13.63 44.31-39.19 62.2l-.36 2.38 56.91 44.09 3.94.39c36.21-33.44 57.09-82.65 57.09-141" transform="translate(-298.93 -468)"></path><path class="beb7a60541-c458-467d-8c2c-77e91e6422dc" d="M490.63 851.41c51.76 0 95.21-17 127-46.44l-60.49-46.86c-16.19 11.29-37.92 19.17-66.46 19.17-50.7 0-93.72-33.44-109.06-79.66l-2.25.19-59.18 45.8-.77 2.15a191.57 191.57 0 0 0 171.21 105.65" transform="translate(-298.93 -468)"></path><path class="be4ac01167-02a5-4176-b8c4-0747526c2df7" d="M381.57 697.62a118 118 0 0 1-6.39-37.92 124 124 0 0 1 6.18-37.92l-.11-2.54-59.92-46.53-2 .93a191.3 191.3 0 0 0 0 172.11l62.2-48.14" transform="translate(-298.93 -468)"></path><path class="be5cc75c6f-892d-4fbe-8175-52d2c218f39b" d="M490.63 542.13c36 0 60.28 15.55 74.13 28.54l54.1-52.83C585.63 487 542.39 468 490.63 468a191.57 191.57 0 0 0-171.26 105.65l62 48.14c15.55-46.22 58.58-79.66 109.27-79.66" transform="translate(-298.93 -468)"></path></svg>