<svg focusable="false" viewBox="0 0 13 13" id="tool-tip" xmlns="http://www.w3.org/2000/svg"><path fill="#999" fill-rule="evenodd" d="M6.5 0a6.5 6.5 0 1 1 0 13 6.5 6.5 0 1 1 0-13z"></path><path fill="#FFF" fill-rule="evenodd" d="M7.104 7.977H5.805a19.12 19.12 0 0 1-.005-.346c0-.426.069-.778.209-1.053.139-.275.417-.585.835-.93.418-.344.668-.57.75-.676a.944.944 0 0 0-.146-1.284c-.223-.201-.522-.302-.899-.302-.364 0-.668.105-.913.315-.244.21-.413.53-.505.961l-1.313-.166c.037-.616.295-1.139.777-1.569.48-.431 1.111-.646 1.893-.646.822 0 1.475.218 1.961.653.486.436.729.943.729 1.521 0 .32-.088.623-.267.909-.179.286-.56.675-1.144 1.168-.302.254-.491.459-.563.614-.073.155-.107.432-.1.831zM5.805 9.93V8.479h1.432V9.93H5.805z"></path></svg>